<?xml version="1.0" encoding="utf-8"?>
<!-- Generator: Adobe Illustrator 25.3.1, SVG Export Plug-In . SVG Version: 6.00 Build 0)  -->
<svg version="1.1" id="Layer_1" xmlns="http://www.w3.org/2000/svg" xmlns:xlink="http://www.w3.org/1999/xlink" x="0px" y="0px"
	 viewBox="0 0 153.3 20" style="enable-background:new 0 0 153.3 20;" xml:space="preserve">
<style type="text/css">
	.st0{fill:#F26722;}
</style>
<g id="レイヤー_2">
	<g id="レイヤー_1-2">
		<path class="st0" d="M0,0.3h5.1v7.3l5.6-7.3h6.6L11,7.6l6.6,12h-6.1l-3.8-8.3l-2.6,3v5.3H0V0.3z"/>
		<path class="st0" d="M64.3,0.3h5.4v19.3h-5.4V0.3z"/>
		<path class="st0" d="M72.6,13.3l5.1-0.4c0.1,0.7,0.3,1.4,0.7,2.1c0.5,0.8,1.4,1.2,2.4,1.2c0.6,0,1.3-0.2,1.8-0.6
			c0.8-0.7,0.8-1.8,0.2-2.6c0-0.1-0.1-0.1-0.2-0.2c-0.8-0.6-1.8-1-2.8-1.1c-1.8-0.4-3.6-1.2-5-2.3c-1-1-1.6-2.3-1.5-3.7
			c0-1,0.3-2,0.8-2.8c0.5-0.9,1.4-1.6,2.3-2.1c1.4-0.6,2.8-0.8,4.3-0.8c1.8-0.1,3.6,0.4,5.1,1.4c1.3,1.1,2,2.7,2.1,4.4l-5.1,0.3
			c-0.1-0.7-0.4-1.4-0.8-1.9c-0.5-0.4-1.1-0.6-1.8-0.6c-0.5-0.1-1,0.1-1.4,0.4c-0.3,0.3-0.5,0.7-0.5,1.1c0,0.3,0.1,0.6,0.4,0.8
			c0.5,0.4,1.2,0.6,1.8,0.7c1.8,0.4,3.5,0.9,5.1,1.7c0.9,0.5,1.7,1.2,2.2,2.1c0.5,0.9,0.7,1.9,0.7,2.9c0,1.2-0.3,2.4-0.9,3.4
			c-0.6,1-1.5,1.9-2.6,2.4c-1.3,0.6-2.8,0.9-4.2,0.8c-3,0-5-0.6-6.2-1.9C73.3,16.7,72.6,15,72.6,13.3z"/>
		<polygon class="st0" points="31.5,0.3 30.6,0.3 28.9,6.7 30.4,12.3 26.6,12.3 29.9,0.3 25.6,0.3 19.1,19.7 24.6,19.7 25.4,16.5 
			31.5,16.5 32.4,19.7 38,19.7 		"/>
		<polygon class="st0" points="126.6,0.3 125.7,0.3 123.9,6.7 125.5,12.3 121.7,12.3 122.3,10.1 122.3,10.1 124.9,0.3 120.7,0.3 
			114.2,19.7 119.6,19.7 120.5,16.5 126.6,16.5 127.5,19.7 133.1,19.7 		"/>
		<polygon class="st0" points="105.3,0.3 100.5,19.7 104.6,19.7 107.9,4.9 107.9,19.7 112.7,19.7 112.7,0.3 		"/>
		<polygon class="st0" points="101.6,12.3 98.6,0.3 91.2,0.3 91.2,19.7 95.9,19.7 95.9,4.9 99.3,19.7 99.8,19.7 		"/>
		<polygon class="st0" points="146.8,9.6 152.8,0.3 147.4,0.3 134.4,19.7 140.4,19.7 143.8,14.3 147.3,19.7 153.3,19.7 		"/>
		<polygon class="st0" points="143.4,5 140.3,0.3 134.9,0.3 140.6,9.2 		"/>
		<polygon class="st0" points="53.6,0.3 48.8,19.7 52.9,19.7 56.3,4.9 56.3,19.7 61,19.7 61,0.3 		"/>
		<polygon class="st0" points="49.9,12.3 46.9,0.3 39.5,0.3 39.5,19.7 44.2,19.7 44.2,4.9 47.6,19.7 48.1,19.7 		"/>
	</g>
</g>
</svg>
